<svg width="24" height="24" viewBox="0 0 24 24" fill="none" xmlns="http://www.w3.org/2000/svg">
<path fill-rule="evenodd" clip-rule="evenodd" d="M3.09467 3.09467C4.42914 1.7602 6.42603 1.25 9 1.25H15C17.574 1.25 19.5709 1.7602 20.9053 3.09467C22.2398 4.42914 22.75 6.42603 22.75 9V15C22.75 17.574 22.2398 19.5709 20.9053 20.9053C19.5709 22.2398 17.574 22.75 15 22.75H9C6.42603 22.75 4.42914 22.2398 3.09467 20.9053C1.7602 19.5709 1.25 17.574 1.25 15V9C1.25 6.42603 1.7602 4.42914 3.09467 3.09467ZM4.15533 4.15533C3.2398 5.07086 2.75 6.57397 2.75 9V15C2.75 17.426 3.2398 18.9291 4.15533 19.8447C5.07086 20.7602 6.57397 21.25 9 21.25H15C17.426 21.25 18.9291 20.7602 19.8447 19.8447C20.7602 18.9291 21.25 17.426 21.25 15V9C21.25 6.57397 20.7602 5.07086 19.8447 4.15533C18.9291 3.2398 17.426 2.75 15 2.75H9C6.57397 2.75 5.07086 3.2398 4.15533 4.15533Z" fill="#9197B3"/>
<path fill-rule="evenodd" clip-rule="evenodd" d="M15.7513 8.26197C14.4129 6.9318 12.2466 6.93414 10.9203 8.26034C9.99619 9.18451 9.71458 10.512 10.0769 11.6894C10.1586 11.955 10.0868 12.2439 9.89036 12.4403L7.32485 15.0058C7.32237 15.0092 7.31699 15.0169 7.30975 15.0298C7.29722 15.052 7.28419 15.0807 7.27344 15.1127C7.26264 15.1448 7.25665 15.1728 7.25411 15.1929C7.25329 15.1994 7.25297 15.204 7.25284 15.2067L7.25345 15.2109L7.41185 16.3989C7.4159 16.418 7.43537 16.4688 7.48729 16.5217C7.53966 16.5749 7.58011 16.5851 7.58291 16.5858C7.58303 16.5858 7.58294 16.5858 7.58291 16.5858L7.58915 16.5866L8.79724 16.7477C8.79961 16.7477 8.80778 16.7478 8.82189 16.7462C8.84404 16.7437 8.87145 16.738 8.9002 16.7286C8.92909 16.7191 8.952 16.7083 8.96691 16.6996C8.97019 16.6977 8.97267 16.6962 8.97442 16.695C8.97651 16.6929 8.97861 16.6908 8.98072 16.6887L11.5707 14.1087C11.7684 13.9117 12.059 13.8408 12.3251 13.9246C13.4956 14.2929 14.822 14.0067 15.7488 13.0805C17.0791 11.7412 17.0742 9.57666 15.7513 8.26197ZM16.8087 7.19806C14.8871 5.28823 11.7735 5.28589 9.85969 7.19968C8.64142 8.41796 8.20285 10.1159 8.52781 11.6816L6.2497 13.9597L6.23556 13.9742C6.05194 14.168 5.92648 14.4121 5.85161 14.6348C5.77835 14.8527 5.72592 15.1325 5.7674 15.4151L5.92661 16.6091L5.92875 16.624C5.98625 16.9978 6.17761 17.3291 6.41776 17.5734C6.65734 17.817 6.99434 18.0229 7.39347 18.0738L8.58652 18.2328C8.86191 18.2723 9.13928 18.2287 9.36735 18.154C9.59119 18.0806 9.84619 17.9514 10.0454 17.7453L12.3257 15.4738C13.8964 15.807 15.5946 15.3561 16.8103 14.1403L16.812 14.1387C18.7209 12.218 18.7256 9.10312 16.8087 7.19806Z" fill="#9197B3"/>
<path fill-rule="evenodd" clip-rule="evenodd" d="M9.07275 14.8866C9.36735 14.5954 9.84221 14.5982 10.1334 14.8928L10.9834 15.7528C11.2746 16.0474 11.2718 16.5223 10.9772 16.8134C10.6826 17.1046 10.2078 17.1018 9.91658 16.8072L9.06656 15.9472C8.77538 15.6526 8.77815 15.1778 9.07275 14.8866Z" fill="#9197B3"/>
<path fill-rule="evenodd" clip-rule="evenodd" d="M12.3945 10.7C12.3945 10.1477 12.8422 9.70001 13.3945 9.70001H13.4035C13.9558 9.70001 14.4035 10.1477 14.4035 10.7C14.4035 11.2523 13.9558 11.7 13.4035 11.7H13.3945C12.8422 11.7 12.3945 11.2523 12.3945 10.7Z" fill="#9197B3"/>
</svg>
