<svg width="24" height="24" viewBox="0 0 24 24" fill="none" xmlns="http://www.w3.org/2000/svg">
<path fill-rule="evenodd" clip-rule="evenodd" d="M3.60156 16.1104C4.01578 16.1104 4.35156 16.4462 4.35156 16.8604C4.35156 18.021 5.4539 19.0504 7.18158 19.0504C8.89597 19.0504 10.0016 18.0137 10.0016 16.8604C10.0016 16.4462 10.3374 16.1104 10.7516 16.1104C11.1658 16.1104 11.5016 16.4462 11.5016 16.8604V18.8904C11.5016 21.119 9.46466 22.7504 7.18158 22.7504C4.90139 22.7504 2.85156 21.1215 2.85156 18.8904V16.8604C2.85156 16.4462 3.18735 16.1104 3.60156 16.1104ZM4.60513 19.856C5.03548 20.6474 5.9803 21.2504 7.18158 21.2504C8.38356 21.2504 9.32567 20.646 9.7524 19.8516C9.01279 20.3035 8.10857 20.5504 7.18158 20.5504C6.25221 20.5504 5.34618 20.3059 4.60513 19.856Z" fill="#9197B3"/>
<path fill-rule="evenodd" clip-rule="evenodd" d="M7.16003 11.76C6.34166 11.76 5.6302 12.0405 5.12456 12.4839L5.12395 12.4844C4.62392 12.922 4.34009 13.4948 4.34009 14.11C4.34009 14.4645 4.43796 14.7909 4.61109 15.0807C5.03854 15.773 5.97634 16.3 7.17004 16.3C8.36853 16.3 9.30277 15.7796 9.72815 15.0822C9.90187 14.7919 10.0001 14.465 10.0001 14.11C10.0001 13.493 9.71529 12.9173 9.20994 12.4962L9.20046 12.4883L9.20053 12.4882C8.68875 12.0473 7.97312 11.76 7.16003 11.76ZM4.13558 11.3561C4.92994 10.6595 5.9984 10.26 7.16003 10.26C8.32465 10.26 9.38719 10.6711 10.1749 11.3478C10.9869 12.0266 11.5001 13.0092 11.5001 14.11C11.5001 14.7542 11.3188 15.3466 11.0132 15.8559L11.0109 15.8598L11.0109 15.8598C10.2556 17.1014 8.77043 17.8 7.17004 17.8C5.56568 17.8 4.08457 17.0888 3.33106 15.8627L3.32687 15.8559L3.32691 15.8559C3.02132 15.3466 2.84009 14.7542 2.84009 14.11C2.84009 13.0052 3.35621 12.0381 4.13619 11.3556L4.63007 11.92L4.13558 11.3561Z" fill="#9197B3"/>
<path fill-rule="evenodd" clip-rule="evenodd" d="M7.18158 11.75C5.51321 11.75 4.35156 12.8998 4.35156 14.11V16.86C4.35156 18.0109 5.46426 19.05 7.18158 19.05C8.89779 19.05 10.0016 18.0218 10.0016 16.86V14.11C10.0016 13.493 9.71629 12.9116 9.21991 12.4763C8.70828 12.0365 7.99353 11.75 7.18158 11.75ZM2.85156 14.11C2.85156 11.8802 4.88995 10.25 7.18158 10.25C8.34849 10.25 9.41292 10.6627 10.2011 11.3418L10.2055 11.3456L10.2055 11.3456C10.9878 12.0301 11.5016 13.0079 11.5016 14.11V16.86C11.5016 19.1382 9.40537 20.55 7.18158 20.55C4.9589 20.55 2.85156 19.1291 2.85156 16.86V14.11Z" fill="#9197B3"/>
<path fill-rule="evenodd" clip-rule="evenodd" d="M18.92 10.7C18.5609 10.7 18.245 10.8392 18.0173 11.0731L18.0038 11.0866C17.7378 11.3462 17.5892 11.716 17.6266 12.1088L17.6275 12.1176L17.6274 12.1176C17.6803 12.7526 18.2909 13.2999 19.0399 13.2999H20.9828C21.1445 13.2895 21.25 13.1631 21.25 13.03V10.9699C21.25 10.8368 21.1444 10.7104 20.9828 10.7H18.92ZM16.9492 10.0199C17.4609 9.49802 18.1624 9.19995 18.92 9.19995H21C21.0089 9.19995 21.0179 9.20011 21.0268 9.20043C21.9798 9.23446 22.75 10.0056 22.75 10.9699V13.03C22.75 13.9943 21.9797 14.7654 21.0268 14.7994C21.0179 14.7997 21.0089 14.7999 21 14.7999H19.0399C17.6303 14.7999 16.2623 13.7692 16.133 12.2466C16.0522 11.3845 16.3804 10.579 16.9492 10.0199Z" fill="#9197B3"/>
<path fill-rule="evenodd" clip-rule="evenodd" d="M7 4.25C6.75575 4.25 6.52398 4.26744 6.30404 4.30128L6.28339 4.30416C5.17606 4.44312 4.30559 4.91721 3.70955 5.61651C3.11197 6.31761 2.75 7.29287 2.75 8.5V10.5C2.75 10.9142 2.41421 11.25 2 11.25C1.58579 11.25 1.25 10.9142 1.25 10.5V8.5C1.25 6.98713 1.70803 5.65239 2.56796 4.64349C3.42737 3.63519 4.64812 2.9999 6.08633 2.81714C6.38312 2.77204 6.68789 2.75 7 2.75H16C16.2697 2.75 16.5608 2.75976 16.8545 2.80711C18.305 2.97975 19.5395 3.6109 20.4103 4.62C21.2833 5.63163 21.75 6.9753 21.75 8.5V9.95001C21.75 10.3642 21.4142 10.7 21 10.7H18.92C18.561 10.7 18.2452 10.8392 18.0174 11.0732L18.0039 11.0867C17.7378 11.3464 17.5892 11.7162 17.6266 12.1089L17.6275 12.1177L17.6274 12.1177C17.6803 12.7527 18.2909 13.3 19.04 13.3H21C21.4142 13.3 21.75 13.6358 21.75 14.05V15.5C21.75 17.1704 21.1899 18.6207 20.1553 19.6553C19.1207 20.6899 17.6704 21.25 16 21.25H13.5C13.0858 21.25 12.75 20.9142 12.75 20.5C12.75 20.0858 13.0858 19.75 13.5 19.75H16C17.3296 19.75 18.3793 19.3101 19.0947 18.5947C19.8101 17.8793 20.25 16.8296 20.25 15.5V14.8H19.04C17.6305 14.8 16.2623 13.7693 16.133 12.2467C16.0522 11.3845 16.3805 10.579 16.9493 10.02C17.4609 9.49817 18.1623 9.20001 18.92 9.20001H20.25V8.5C20.25 7.2847 19.8817 6.30336 19.2747 5.59999C18.6691 4.89822 17.7851 4.42541 16.6634 4.29497C16.6511 4.29354 16.6389 4.29182 16.6267 4.28979C16.4468 4.2598 16.2445 4.25 16 4.25H7Z" fill="#9197B3"/>
</svg>
